<svg width="40" height="40" viewBox="0 0 40 40" fill="none" xmlns="http://www.w3.org/2000/svg">
<path d="M19.9999 3.33334C10.7999 3.33334 3.33325 10.8 3.33325 20C3.33325 29.2 10.7999 36.6667 19.9999 36.6667C29.1999 36.6667 36.6666 29.2 36.6666 20C36.6666 10.8 29.1999 3.33334 19.9999 3.33334ZM11.7833 30.4667C12.4999 28.9667 16.8666 27.5 19.9999 27.5C23.1333 27.5 27.5166 28.9667 28.2166 30.4667C25.9499 32.2667 23.0999 33.3333 19.9999 33.3333C16.8999 33.3333 14.0499 32.2667 11.7833 30.4667ZM30.5999 28.05C28.2166 25.15 22.4333 24.1667 19.9999 24.1667C17.5666 24.1667 11.7833 25.15 9.39992 28.05C7.62934 25.7397 6.66876 22.9107 6.66659 20C6.66659 12.65 12.6499 6.66668 19.9999 6.66668C27.3499 6.66668 33.3333 12.65 33.3333 20C33.3333 23.0333 32.2999 25.8167 30.5999 28.05ZM19.9999 10C16.7666 10 14.1666 12.6 14.1666 15.8333C14.1666 19.0667 16.7666 21.6667 19.9999 21.6667C23.2333 21.6667 25.8333 19.0667 25.8333 15.8333C25.8333 12.6 23.2333 10 19.9999 10ZM19.9999 18.3333C18.6166 18.3333 17.4999 17.2167 17.4999 15.8333C17.4999 14.45 18.6166 13.3333 19.9999 13.3333C21.3833 13.3333 22.4999 14.45 22.4999 15.8333C22.4999 17.2167 21.3833 18.3333 19.9999 18.3333Z" fill="black"/>
</svg>
