<svg width="40" height="40" viewBox="0 0 40 40" fill="none" xmlns="http://www.w3.org/2000/svg">
<path d="M33.3333 5H6.66659C5.78253 5 4.93468 5.35119 4.30956 5.97631C3.68444 6.60143 3.33325 7.44928 3.33325 8.33333V11.6667C3.33676 12.2484 3.49245 12.819 3.78483 13.3219C4.07722 13.8249 4.49613 14.2425 4.99992 14.5333V31.6667C4.99992 32.5507 5.35111 33.3986 5.97623 34.0237C6.60135 34.6488 7.4492 35 8.33325 35H31.6666C32.5506 35 33.3985 34.6488 34.0236 34.0237C34.6487 33.3986 34.9999 32.5507 34.9999 31.6667V14.5333C35.5037 14.2425 35.9226 13.8249 36.215 13.3219C36.5074 12.819 36.6631 12.2484 36.6666 11.6667V8.33333C36.6666 7.44928 36.3154 6.60143 35.6903 5.97631C35.0652 5.35119 34.2173 5 33.3333 5ZM6.66659 8.33333H33.3333V11.6667H6.66659V8.33333ZM8.33325 31.6667V15H31.6666V31.6667H8.33325Z" fill="black"/>
<path d="M13.3333 18.3333H26.6666V21.6667H13.3333V18.3333Z" fill="black"/>
</svg>
