<svg width="40" height="40" viewBox="0 0 40 40" fill="none" xmlns="http://www.w3.org/2000/svg">
<path d="M26.7734 13.8594C26.7734 13.6875 26.6328 13.5469 26.4609 13.5469L23.8828 13.5586L20 18.1875L16.1211 13.5625L13.5391 13.5508C13.3672 13.5508 13.2266 13.6875 13.2266 13.8633C13.2266 13.9375 13.2539 14.0078 13.3008 14.0664L18.3828 20.1211L13.3008 26.1719C13.2536 26.2291 13.2274 26.3008 13.2266 26.375C13.2266 26.5469 13.3672 26.6875 13.5391 26.6875L16.1211 26.6758L20 22.0469L23.8789 26.6719L26.457 26.6836C26.6289 26.6836 26.7695 26.5469 26.7695 26.3711C26.7695 26.2969 26.7422 26.2266 26.6953 26.168L21.6211 20.1172L26.7031 14.0625C26.75 14.0078 26.7734 13.9336 26.7734 13.8594Z" fill="#F79750"/>
<path d="M20 2.53906C10.3359 2.53906 2.5 10.375 2.5 20.0391C2.5 29.7031 10.3359 37.5391 20 37.5391C29.6641 37.5391 37.5 29.7031 37.5 20.0391C37.5 10.375 29.6641 2.53906 20 2.53906ZM20 34.5703C11.9766 34.5703 5.46875 28.0625 5.46875 20.0391C5.46875 12.0156 11.9766 5.50781 20 5.50781C28.0234 5.50781 34.5312 12.0156 34.5312 20.0391C34.5312 28.0625 28.0234 34.5703 20 34.5703Z" fill="#F79750"/>
</svg>
