<svg width="100" height="100" viewBox="0 0 100 100" fill="none" xmlns="http://www.w3.org/2000/svg">
<path d="M16.6667 25H8.33337V83.3334C8.33337 87.9167 12.0834 91.6667 16.6667 91.6667H75V83.3334H16.6667V25ZM83.3334 8.33334H33.3334C28.75 8.33334 25 12.0833 25 16.6667V66.6667C25 71.25 28.75 75 33.3334 75H83.3334C87.9167 75 91.6667 71.25 91.6667 66.6667V16.6667C91.6667 12.0833 87.9167 8.33334 83.3334 8.33334ZM83.3334 66.6667H33.3334V16.6667H83.3334V66.6667ZM56.2917 42.3333C58 39.2917 61.2084 37.5 63.0834 34.8333C65.0834 32 63.9584 26.75 58.3334 26.75C54.6667 26.75 52.8334 29.5417 52.0834 31.875L46.375 29.5C47.9584 24.8333 52.1667 20.8333 58.2917 20.8333C63.4167 20.8333 66.9584 23.1667 68.75 26.0833C70.2917 28.5833 71.1667 33.2917 68.7917 36.7917C66.1667 40.6667 63.6667 41.8333 62.2917 44.3333C61.75 45.3333 61.5417 46 61.5417 49.25H55.2084C55.25 47.5417 54.9584 44.75 56.2917 42.3333ZM53.9584 58.125C53.9584 55.6667 55.9167 53.7917 58.3334 53.7917C60.7917 53.7917 62.6667 55.6667 62.6667 58.125C62.6667 60.5417 60.8334 62.5 58.3334 62.5C55.9167 62.5 53.9584 60.5417 53.9584 58.125Z" fill="#F79750"/>
</svg>
