<svg width="44" height="44" viewBox="0 0 44 44" fill="none" xmlns="http://www.w3.org/2000/svg">
<path d="M22 0.125C9.91992 0.125 0.125 9.91992 0.125 22C0.125 34.0801 9.91992 43.875 22 43.875C34.0801 43.875 43.875 34.0801 43.875 22C43.875 9.91992 34.0801 0.125 22 0.125ZM29.5537 22.3174L17.542 31.0088C17.2832 31.1943 16.9219 31.0088 16.9219 30.6914V28.4014C16.9219 27.9033 17.1611 27.4297 17.5664 27.1367L24.666 22L17.5664 16.8633C17.1611 16.5703 16.9219 16.1016 16.9219 15.5986V13.3086C16.9219 12.9912 17.2832 12.8057 17.542 12.9912L29.5537 21.6826C29.7686 21.8389 29.7686 22.1611 29.5537 22.3174Z" fill="#F79750"/>
</svg>
