<svg width="100" height="100" viewBox="0 0 100 100" fill="none" xmlns="http://www.w3.org/2000/svg">
<path d="M50 10C44.6957 10 39.6086 12.1071 35.8579 15.8579C32.1071 19.6086 30 24.6957 30 30C30 35.3043 32.1071 40.3914 35.8579 44.1421C39.6086 47.8929 44.6957 50 50 50C55.3043 50 60.3914 47.8929 64.1421 44.1421C67.8929 40.3914 70 35.3043 70 30C70 24.6957 67.8929 19.6086 64.1421 15.8579C60.3914 12.1071 55.3043 10 50 10ZM35 30C35 26.0218 36.5804 22.2064 39.3934 19.3934C42.2064 16.5804 46.0218 15 50 15C53.9782 15 57.7936 16.5804 60.6066 19.3934C63.4197 22.2064 65 26.0218 65 30C65 33.9782 63.4197 37.7936 60.6066 40.6066C57.7936 43.4197 53.9782 45 50 45C46.0218 45 42.2064 43.4197 39.3934 40.6066C36.5804 37.7936 35 33.9782 35 30ZM64.395 55H25.045C23.7282 54.9947 22.4233 55.2495 21.2051 55.7496C19.987 56.2497 18.8795 56.9854 17.9463 57.9145C17.0131 58.8435 16.2724 59.9476 15.7668 61.1635C15.2612 62.3794 15.0006 63.6832 15 65C15 73.455 19.165 79.83 25.675 83.985C31.145 87.47 38.235 89.385 45.955 89.875C45.2294 88.2447 44.7492 86.516 44.53 84.745C38.14 84.14 32.56 82.445 28.365 79.765C23.115 76.415 20 71.55 20 65C20 62.235 22.24 60 25.045 60H59.395L64.395 55ZM91.77 53.235C90.553 52.0171 89.1079 51.0509 87.5173 50.3917C85.9267 49.7326 84.2218 49.3933 82.5 49.3933C80.7782 49.3933 79.0733 49.7326 77.4827 50.3917C75.8921 51.0509 74.447 52.0171 73.23 53.235L53.23 73.235C50.7721 75.6929 49.3913 79.0265 49.3913 82.5025C49.3913 85.9785 50.7721 89.3121 53.23 91.77C55.6879 94.2279 59.0215 95.6087 62.4975 95.6087C65.9735 95.6087 69.3071 94.2279 71.765 91.77L91.765 71.77C92.9822 70.5531 93.9477 69.1083 94.6064 67.5181C95.2652 65.928 95.6042 64.2237 95.6042 62.5025C95.6042 60.7813 95.2652 59.077 94.6064 57.4869C93.9477 55.8967 92.9822 54.4519 91.765 53.235H91.77ZM76.77 56.77C77.5228 56.0175 78.4164 55.4207 79.3999 55.0136C80.3834 54.6065 81.4374 54.3971 82.5018 54.3973C83.5662 54.3975 84.6201 54.6074 85.6034 55.0149C86.5866 55.4225 87.48 56.0197 88.2325 56.7725C88.985 57.5253 89.5818 58.4189 89.9889 59.4024C90.396 60.3859 90.6054 61.4399 90.6052 62.5043C90.605 63.5687 90.3951 64.6226 89.9876 65.6059C89.58 66.5891 88.9828 67.4825 88.23 68.235L80 76.465L68.535 65L76.765 56.77H76.77ZM69.27 78.23C69.5028 78.4622 69.6875 78.7381 69.8136 79.0418C69.9396 79.3456 70.0045 79.6712 70.0045 80C70.0045 80.3288 69.9396 80.6544 69.8136 80.9582C69.6875 81.2619 69.5028 81.5378 69.27 81.77L64.27 86.77C63.8006 87.2394 63.1639 87.5032 62.5 87.5032C61.8361 87.5032 61.1994 87.2394 60.73 86.77C60.2606 86.3006 59.9968 85.6639 59.9968 85C59.9968 84.3361 60.2606 83.6994 60.73 83.23L65.73 78.23C65.9622 77.9972 66.2381 77.8125 66.5418 77.6864C66.8456 77.5604 67.1712 77.4955 67.5 77.4955C67.8288 77.4955 68.1544 77.5604 68.4582 77.6864C68.7619 77.8125 69.0378 77.9972 69.27 78.23Z" fill="#F79750"/>
</svg>
