<svg width="34" height="34" viewBox="0 0 34 34" fill="none" xmlns="http://www.w3.org/2000/svg">
<path d="M16.9999 33.6667C7.79492 33.6667 0.333252 26.205 0.333252 17C0.333252 7.79501 7.79492 0.333344 16.9999 0.333344C26.2049 0.333344 33.6666 7.79501 33.6666 17C33.6666 26.205 26.2049 33.6667 16.9999 33.6667ZM25.0333 25.46C27.1572 23.439 28.4424 20.6924 28.6331 17.7667C28.8237 14.8411 27.9059 11.9509 26.0621 9.67133C24.2184 7.39177 21.584 5.88995 18.6831 5.46475C15.7822 5.03955 12.8276 5.72214 10.4072 7.37669C7.98685 9.03123 6.27814 11.5364 5.62115 14.3937C4.96415 17.251 5.40704 20.2509 6.86168 22.7965C8.31632 25.342 10.6761 27.2466 13.4713 28.1311C16.2665 29.0157 19.2923 28.8153 21.9466 27.57L20.3216 24.645C18.6764 25.36 16.8444 25.5251 15.0979 25.1157C13.3514 24.7062 11.7836 23.7442 10.6276 22.3724C9.47164 21.0007 8.78914 19.2926 8.68158 17.502C8.57402 15.7114 9.04714 13.9338 10.0306 12.4336C11.0141 10.9334 12.4554 9.79052 14.1403 9.17496C15.8253 8.5594 17.6639 8.50398 19.3828 9.01693C21.1018 9.52987 22.6093 10.5838 23.6814 12.0221C24.7534 13.4603 25.3328 15.2062 25.3333 17H20.3333L25.0333 25.46Z" fill="#F79750"/>
</svg>
