<?xml version="1.0" encoding="UTF-8"?>
<svg xmlns="http://www.w3.org/2000/svg" xmlns:xlink="http://www.w3.org/1999/xlink" width="120px" height="120px" viewBox="0 0 120 120" version="1.1">
<g id="surface1">
<path style=" stroke:none;fill-rule:evenodd;fill:rgb(95.686275%,58.039216%,32.941176%);fill-opacity:1;" d="M 98.125 50.957031 C 97.675781 51.015625 97.070312 51.136719 96.625 51.261719 C 96.433594 51.316406 96.222656 51.371094 96.160156 51.386719 C 96.097656 51.398438 96.035156 51.433594 96.019531 51.457031 C 96.007812 51.480469 95.960938 51.5 95.921875 51.5 C 95.648438 51.5 93.835938 52.542969 93.523438 52.878906 C 93.496094 52.90625 93.332031 53.050781 93.160156 53.199219 C 92.847656 53.464844 91.914062 54.503906 91.859375 54.648438 C 91.84375 54.691406 91.816406 54.734375 91.800781 54.75 C 91.5625 54.941406 90.886719 56.335938 90.671875 57.074219 C 90.484375 57.722656 90.449219 57.855469 90.363281 58.273438 C 90.234375 58.921875 90.238281 61.234375 90.367188 61.824219 C 90.621094 62.992188 91.019531 64.0625 91.464844 64.773438 C 91.679688 65.125 92.15625 65.765625 92.371094 65.996094 C 92.90625 66.570312 93.417969 67.050781 93.496094 67.050781 C 93.527344 67.050781 93.550781 67.070312 93.550781 67.089844 C 93.550781 67.113281 93.714844 67.242188 93.914062 67.378906 C 94.113281 67.515625 94.285156 67.636719 94.300781 67.648438 C 94.351562 67.699219 94.53125 67.800781 94.949219 68.003906 C 95.183594 68.117188 95.429688 68.238281 95.5 68.273438 C 97.035156 69.042969 100.191406 69.339844 102.375 68.917969 C 102.882812 68.820312 103.382812 68.703125 103.519531 68.652344 C 103.578125 68.628906 103.714844 68.585938 103.824219 68.550781 C 104.3125 68.402344 105.597656 67.804688 105.75 67.648438 C 105.765625 67.636719 105.921875 67.527344 106.101562 67.402344 C 106.460938 67.15625 106.515625 67.113281 106.976562 66.660156 C 107.339844 66.308594 107.359375 66.25 107.164062 66.121094 C 107.085938 66.074219 107.003906 66.007812 106.976562 65.972656 C 106.933594 65.925781 106.5 65.558594 105.558594 64.773438 C 105.492188 64.71875 105.414062 64.648438 105.378906 64.621094 C 105.347656 64.589844 105.1875 64.457031 105.023438 64.324219 C 104.859375 64.191406 104.714844 64.070312 104.699219 64.050781 C 104.675781 64.027344 104.210938 63.628906 103.984375 63.449219 C 103.933594 63.410156 103.796875 63.289062 103.683594 63.1875 C 103.34375 62.882812 103.085938 62.714844 103.0625 62.789062 C 103.050781 62.820312 103.011719 62.851562 102.972656 62.851562 C 102.933594 62.851562 102.898438 62.867188 102.898438 62.890625 C 102.898438 62.910156 102.828125 62.972656 102.738281 63.023438 C 102.648438 63.074219 102.5625 63.132812 102.550781 63.148438 C 102.519531 63.191406 101.734375 63.5625 101.5 63.644531 C 100.574219 63.976562 99.105469 63.902344 98.160156 63.46875 C 98.015625 63.402344 97.886719 63.351562 97.871094 63.351562 C 97.714844 63.351562 96.898438 62.535156 96.828125 62.304688 L 96.792969 62.199219 L 102.484375 62.1875 L 108.171875 62.175781 L 108.210938 61.976562 C 108.5 60.363281 108.5 59.253906 108.21875 57.800781 C 108.140625 57.394531 108.121094 57.332031 107.921875 56.726562 C 107.730469 56.15625 107.417969 55.445312 107.335938 55.40625 C 107.316406 55.398438 107.300781 55.367188 107.300781 55.335938 C 107.300781 55.273438 106.992188 54.78125 106.9375 54.757812 C 106.917969 54.75 106.898438 54.71875 106.898438 54.691406 C 106.898438 54.640625 106.671875 54.3125 106.574219 54.226562 C 106.546875 54.199219 106.488281 54.128906 106.449219 54.070312 C 105.867188 53.226562 104.390625 52.117188 103.148438 51.585938 C 101.824219 51.019531 99.71875 50.757812 98.125 50.957031 M 42 51.496094 C 42 51.546875 42.03125 51.65625 42.074219 51.734375 C 42.140625 51.863281 42.265625 52.191406 42.582031 53.050781 C 42.648438 53.230469 42.722656 53.421875 42.746094 53.476562 C 42.773438 53.53125 42.828125 53.675781 42.871094 53.800781 C 42.910156 53.921875 43.015625 54.203125 43.101562 54.425781 C 43.1875 54.644531 43.269531 54.871094 43.285156 54.925781 C 43.300781 54.980469 43.332031 55.046875 43.351562 55.074219 C 43.371094 55.101562 43.433594 55.261719 43.488281 55.425781 C 43.546875 55.59375 43.621094 55.796875 43.652344 55.878906 C 43.683594 55.957031 43.730469 56.070312 43.75 56.125 C 43.769531 56.179688 43.816406 56.292969 43.847656 56.375 C 43.882812 56.457031 43.945312 56.625 43.984375 56.75 C 44.027344 56.875 44.089844 57.042969 44.125 57.125 C 44.15625 57.207031 44.21875 57.363281 44.261719 57.476562 C 44.304688 57.585938 44.394531 57.820312 44.464844 58 C 44.535156 58.179688 44.671875 58.550781 44.773438 58.824219 C 44.875 59.101562 45.019531 59.484375 45.097656 59.675781 C 45.175781 59.867188 45.265625 60.105469 45.300781 60.199219 C 45.335938 60.296875 45.390625 60.441406 45.425781 60.523438 C 45.460938 60.609375 45.523438 60.777344 45.566406 60.898438 C 45.605469 61.023438 45.667969 61.191406 45.703125 61.273438 C 45.734375 61.359375 45.78125 61.46875 45.800781 61.523438 C 45.820312 61.582031 45.863281 61.691406 45.898438 61.773438 C 45.933594 61.859375 45.992188 62.027344 46.035156 62.148438 C 46.074219 62.273438 46.136719 62.441406 46.171875 62.523438 C 46.207031 62.609375 46.269531 62.765625 46.3125 62.875 C 46.355469 62.984375 46.445312 63.222656 46.515625 63.398438 C 46.785156 64.097656 47.21875 65.238281 47.3125 65.5 C 47.363281 65.652344 47.4375 65.84375 47.472656 65.925781 C 47.511719 66.007812 47.574219 66.175781 47.617188 66.300781 C 47.65625 66.421875 47.71875 66.59375 47.75 66.675781 C 47.785156 66.757812 47.828125 66.871094 47.851562 66.925781 C 47.871094 66.980469 47.925781 67.125 47.972656 67.25 C 48.019531 67.375 48.089844 67.539062 48.128906 67.617188 C 48.167969 67.695312 48.199219 67.789062 48.199219 67.828125 C 48.199219 67.867188 48.21875 67.941406 48.242188 67.988281 C 48.351562 68.199219 48.449219 68.460938 48.449219 68.527344 C 48.449219 68.589844 48.886719 68.601562 51.777344 68.601562 L 55.101562 68.601562 L 55.183594 68.414062 C 55.226562 68.308594 55.28125 68.1875 55.304688 68.136719 C 55.332031 68.089844 55.351562 68.019531 55.351562 67.980469 C 55.351562 67.941406 55.382812 67.84375 55.421875 67.765625 C 55.460938 67.6875 55.53125 67.523438 55.578125 67.398438 C 55.625 67.277344 55.679688 67.128906 55.699219 67.074219 C 55.71875 67.019531 55.765625 66.90625 55.800781 66.824219 C 55.832031 66.742188 55.902344 66.542969 55.957031 66.378906 C 56.007812 66.21875 56.070312 66.058594 56.089844 66.03125 C 56.113281 66 56.15625 65.886719 56.191406 65.773438 C 56.226562 65.664062 56.320312 65.417969 56.398438 65.226562 C 56.476562 65.03125 56.625 64.648438 56.726562 64.375 C 56.824219 64.101562 56.964844 63.730469 57.035156 63.550781 C 57.105469 63.371094 57.195312 63.136719 57.238281 63.023438 C 57.28125 62.914062 57.34375 62.757812 57.375 62.675781 C 57.410156 62.59375 57.472656 62.421875 57.515625 62.300781 C 57.558594 62.175781 57.617188 62.007812 57.652344 61.925781 C 57.683594 61.84375 57.730469 61.730469 57.75 61.675781 C 57.769531 61.621094 57.816406 61.507812 57.847656 61.425781 C 57.882812 61.34375 57.953125 61.148438 58 60.992188 C 58.050781 60.839844 58.113281 60.667969 58.140625 60.617188 C 58.167969 60.566406 58.222656 60.433594 58.265625 60.324219 C 58.304688 60.214844 58.394531 59.980469 58.464844 59.800781 C 58.535156 59.621094 58.671875 59.25 58.777344 58.976562 C 59.042969 58.253906 59.351562 57.441406 59.40625 57.324219 C 59.488281 57.140625 59.710938 56.527344 59.734375 56.410156 C 59.75 56.347656 59.78125 56.285156 59.804688 56.269531 C 59.832031 56.257812 59.851562 56.203125 59.851562 56.152344 C 59.851562 56.101562 59.882812 55.996094 59.921875 55.917969 C 59.960938 55.839844 60.03125 55.671875 60.078125 55.550781 C 60.125 55.425781 60.179688 55.28125 60.199219 55.226562 C 60.21875 55.171875 60.265625 55.058594 60.296875 54.976562 C 60.332031 54.890625 60.394531 54.722656 60.433594 54.601562 C 60.476562 54.476562 60.539062 54.308594 60.574219 54.226562 C 60.671875 53.996094 61.023438 53.082031 61.226562 52.523438 C 61.324219 52.25 61.425781 51.980469 61.449219 51.925781 C 61.523438 51.765625 61.648438 51.441406 61.648438 51.417969 C 61.648438 51.410156 60.046875 51.398438 58.082031 51.398438 L 54.515625 51.398438 L 54.425781 51.6875 C 54.378906 51.84375 54.308594 52.054688 54.273438 52.148438 C 54.234375 52.246094 54.183594 52.402344 54.15625 52.5 C 54.125 52.597656 54.050781 52.84375 53.984375 53.050781 C 53.917969 53.257812 53.765625 53.730469 53.652344 54.101562 C 53.535156 54.472656 53.410156 54.855469 53.371094 54.949219 C 53.332031 55.046875 53.269531 55.25 53.226562 55.398438 C 53.1875 55.550781 53.113281 55.796875 53.0625 55.949219 C 53.007812 56.101562 52.90625 56.417969 52.832031 56.648438 C 52.628906 57.304688 52.507812 57.679688 52.457031 57.808594 C 52.429688 57.871094 52.382812 58.027344 52.351562 58.148438 C 52.316406 58.273438 52.257812 58.453125 52.21875 58.550781 C 52.183594 58.644531 52.117188 58.847656 52.078125 59 C 51.871094 59.765625 51.800781 59.867188 51.703125 59.539062 C 51.667969 59.421875 51.609375 59.246094 51.574219 59.148438 C 51.539062 59.054688 51.484375 58.875 51.449219 58.75 C 51.417969 58.625 51.359375 58.445312 51.324219 58.351562 C 51.289062 58.253906 51.175781 57.90625 51.070312 57.574219 C 50.835938 56.820312 50.714844 56.441406 50.65625 56.292969 C 50.632812 56.226562 50.582031 56.074219 50.550781 55.949219 C 50.515625 55.828125 50.460938 55.644531 50.425781 55.550781 C 50.390625 55.453125 50.277344 55.105469 50.175781 54.773438 C 49.886719 53.847656 49.597656 52.945312 49.527344 52.75 C 49.488281 52.652344 49.433594 52.472656 49.402344 52.351562 C 49.367188 52.226562 49.308594 52.050781 49.269531 51.960938 C 49.230469 51.871094 49.199219 51.765625 49.199219 51.726562 C 49.199219 51.6875 49.175781 51.597656 49.140625 51.527344 L 49.082031 51.398438 L 45.542969 51.398438 C 42.082031 51.398438 42 51.402344 42 51.496094 M 63 60 L 63 68.601562 L 69.449219 68.601562 L 69.449219 51.398438 L 63 51.398438 L 63 60 M 70.800781 51.417969 C 70.800781 51.425781 70.878906 51.632812 70.976562 51.878906 C 71.074219 52.125 71.191406 52.425781 71.234375 52.550781 C 71.273438 52.671875 71.339844 52.84375 71.375 52.925781 C 71.410156 53.007812 71.464844 53.152344 71.5 53.25 C 71.535156 53.347656 71.617188 53.570312 71.6875 53.75 C 71.753906 53.929688 71.84375 54.164062 71.886719 54.273438 C 71.929688 54.386719 71.992188 54.542969 72.027344 54.625 C 72.0625 54.707031 72.128906 54.894531 72.175781 55.039062 C 72.222656 55.183594 72.28125 55.3125 72.304688 55.328125 C 72.332031 55.34375 72.351562 55.410156 72.351562 55.476562 C 72.351562 55.539062 72.371094 55.605469 72.394531 55.621094 C 72.417969 55.636719 72.449219 55.699219 72.464844 55.761719 C 72.476562 55.824219 72.546875 56.019531 72.617188 56.199219 C 72.914062 56.960938 73.027344 57.265625 73.269531 57.925781 C 73.34375 58.117188 73.421875 58.320312 73.445312 58.375 C 73.46875 58.429688 73.515625 58.554688 73.550781 58.648438 C 73.582031 58.746094 73.628906 58.871094 73.652344 58.925781 C 73.765625 59.1875 73.863281 59.445312 73.933594 59.648438 C 73.972656 59.773438 74.035156 59.941406 74.074219 60.023438 C 74.109375 60.105469 74.179688 60.292969 74.226562 60.4375 C 74.273438 60.582031 74.332031 60.714844 74.355469 60.730469 C 74.378906 60.742188 74.398438 60.800781 74.398438 60.851562 C 74.398438 60.90625 74.421875 60.992188 74.445312 61.039062 C 74.46875 61.085938 74.527344 61.226562 74.574219 61.351562 C 74.621094 61.472656 74.691406 61.640625 74.726562 61.726562 C 74.765625 61.808594 74.828125 61.976562 74.871094 62.101562 C 74.953125 62.347656 75.140625 62.847656 75.550781 63.898438 C 75.78125 64.5 75.90625 64.835938 75.976562 65.050781 C 76.019531 65.171875 76.074219 65.316406 76.101562 65.363281 C 76.128906 65.410156 76.1875 65.558594 76.230469 65.6875 C 76.273438 65.820312 76.339844 65.992188 76.375 66.074219 C 76.410156 66.15625 76.5 66.394531 76.574219 66.601562 C 76.644531 66.804688 76.738281 67.042969 76.773438 67.125 C 76.8125 67.207031 76.878906 67.375 76.917969 67.5 C 76.957031 67.625 77.019531 67.792969 77.050781 67.875 C 77.085938 67.957031 77.128906 68.070312 77.148438 68.125 C 77.167969 68.179688 77.222656 68.308594 77.265625 68.414062 L 77.347656 68.601562 L 83.976562 68.601562 L 84.066406 68.335938 C 84.113281 68.191406 84.191406 67.984375 84.234375 67.875 C 84.277344 67.765625 84.328125 67.628906 84.351562 67.574219 C 84.371094 67.519531 84.414062 67.40625 84.449219 67.324219 C 84.480469 67.242188 84.542969 67.074219 84.585938 66.949219 C 84.625 66.828125 84.6875 66.65625 84.722656 66.574219 C 84.757812 66.492188 84.820312 66.335938 84.863281 66.226562 C 84.90625 66.113281 84.996094 65.878906 85.066406 65.699219 C 85.132812 65.519531 85.273438 65.148438 85.375 64.875 C 85.476562 64.601562 85.589844 64.308594 85.625 64.226562 C 85.660156 64.140625 85.722656 63.972656 85.765625 63.851562 C 85.835938 63.636719 85.878906 63.527344 86.027344 63.175781 C 86.0625 63.09375 86.125 62.921875 86.164062 62.800781 C 86.207031 62.675781 86.269531 62.507812 86.300781 62.425781 C 86.335938 62.34375 86.378906 62.230469 86.398438 62.175781 C 86.421875 62.121094 86.464844 62.007812 86.5 61.925781 C 86.53125 61.84375 86.59375 61.671875 86.632812 61.550781 C 86.675781 61.425781 86.738281 61.257812 86.773438 61.175781 C 86.808594 61.09375 86.871094 60.933594 86.914062 60.824219 C 86.953125 60.714844 87.046875 60.480469 87.113281 60.300781 C 87.183594 60.121094 87.324219 59.75 87.425781 59.476562 C 87.527344 59.199219 87.628906 58.929688 87.652344 58.875 C 87.757812 58.632812 87.863281 58.359375 87.933594 58.148438 C 87.972656 58.027344 88.035156 57.855469 88.074219 57.773438 C 88.109375 57.691406 88.175781 57.523438 88.214844 57.398438 C 88.257812 57.277344 88.316406 57.105469 88.351562 57.023438 C 88.386719 56.941406 88.429688 56.828125 88.449219 56.773438 C 88.472656 56.71875 88.527344 56.574219 88.574219 56.449219 C 88.621094 56.328125 88.695312 56.136719 88.738281 56.023438 C 88.777344 55.914062 88.828125 55.78125 88.851562 55.726562 C 88.871094 55.671875 88.921875 55.535156 88.964844 55.425781 C 89.003906 55.316406 89.09375 55.078125 89.164062 54.898438 C 89.628906 53.691406 89.941406 52.871094 90.007812 52.675781 C 90.035156 52.59375 90.085938 52.46875 90.121094 52.398438 C 90.15625 52.332031 90.222656 52.144531 90.273438 51.988281 C 90.320312 51.828125 90.378906 51.6875 90.40625 51.671875 C 90.429688 51.65625 90.449219 51.589844 90.449219 51.523438 L 90.449219 51.398438 L 83.363281 51.398438 L 83.3125 51.539062 C 83.28125 51.613281 83.144531 52.046875 83 52.5 C 82.859375 52.953125 82.710938 53.402344 82.675781 53.5 C 82.640625 53.597656 82.582031 53.777344 82.550781 53.898438 C 82.515625 54.023438 82.460938 54.203125 82.425781 54.300781 C 82.390625 54.394531 82.332031 54.578125 82.300781 54.699219 C 82.265625 54.824219 82.21875 54.976562 82.195312 55.042969 C 82.136719 55.191406 82.011719 55.570312 81.777344 56.324219 C 81.675781 56.65625 81.5625 57.003906 81.527344 57.101562 C 81.488281 57.195312 81.433594 57.375 81.398438 57.5 C 81.367188 57.625 81.308594 57.804688 81.273438 57.898438 C 81.195312 58.113281 80.839844 59.238281 80.746094 59.5625 C 80.65625 59.882812 80.648438 59.878906 80.457031 59.261719 C 80.367188 58.96875 80.261719 58.644531 80.226562 58.550781 C 80.191406 58.453125 80.132812 58.273438 80.101562 58.148438 C 80.066406 58.027344 80.007812 57.847656 79.972656 57.75 C 79.9375 57.652344 79.824219 57.304688 79.722656 56.976562 C 79.488281 56.21875 79.363281 55.839844 79.304688 55.691406 C 79.28125 55.628906 79.234375 55.472656 79.199219 55.351562 C 79.167969 55.226562 79.109375 55.046875 79.074219 54.949219 C 79.039062 54.855469 78.984375 54.671875 78.949219 54.550781 C 78.917969 54.425781 78.859375 54.246094 78.824219 54.148438 C 78.789062 54.054688 78.664062 53.671875 78.546875 53.300781 C 78.433594 52.929688 78.292969 52.5 78.242188 52.351562 C 78.1875 52.199219 78.105469 51.929688 78.058594 51.75 L 77.96875 51.425781 L 74.386719 51.414062 C 72.414062 51.40625 70.800781 51.40625 70.800781 51.417969 M 100.261719 56.121094 C 100.96875 56.246094 101.703125 56.734375 101.976562 57.269531 C 102.03125 57.375 102.109375 57.53125 102.15625 57.617188 C 102.199219 57.703125 102.25 57.835938 102.269531 57.914062 L 102.300781 58.050781 L 99.472656 58.050781 C 97.917969 58.050781 96.652344 58.03125 96.664062 58.011719 C 96.675781 57.992188 96.753906 57.828125 96.839844 57.648438 C 97.417969 56.445312 98.746094 55.851562 100.261719 56.121094 "/>
<path style=" stroke:none;fill-rule:evenodd;fill:rgb(1.568627%,1.568627%,4.705882%);fill-opacity:1;" d="M 31.824219 50.957031 C 30.789062 51.085938 29.792969 51.375 28.925781 51.800781 C 28.488281 52.015625 27.824219 52.40625 27.75 52.496094 C 27.734375 52.511719 27.625 52.589844 27.503906 52.671875 C 26.335938 53.425781 24.796875 55.585938 24.398438 57.023438 C 24.378906 57.105469 24.320312 57.308594 24.273438 57.476562 C 24.117188 58.019531 23.953125 59.324219 23.953125 60.050781 C 23.949219 60.699219 24.101562 62.039062 24.226562 62.449219 C 24.261719 62.574219 24.320312 62.777344 24.351562 62.898438 C 24.382812 63.023438 24.441406 63.1875 24.480469 63.265625 C 24.519531 63.34375 24.550781 63.4375 24.550781 63.472656 C 24.550781 63.632812 25.398438 65.195312 25.511719 65.242188 C 25.53125 65.25 25.550781 65.28125 25.550781 65.308594 C 25.550781 65.335938 25.578125 65.386719 25.613281 65.421875 C 25.648438 65.457031 25.730469 65.5625 25.800781 65.65625 C 25.964844 65.878906 27.027344 66.941406 27.246094 67.101562 C 27.339844 67.167969 27.476562 67.273438 27.546875 67.328125 C 27.71875 67.472656 28.667969 68.039062 28.839844 68.105469 C 28.914062 68.132812 29.066406 68.199219 29.175781 68.25 C 29.507812 68.402344 29.714844 68.484375 29.925781 68.550781 C 30.035156 68.585938 30.214844 68.640625 30.324219 68.679688 C 31.679688 69.125 34.867188 69.246094 36.191406 68.90625 C 36.292969 68.878906 36.511719 68.828125 36.675781 68.796875 C 37 68.730469 38.09375 68.378906 38.300781 68.277344 C 38.367188 68.242188 38.558594 68.148438 38.726562 68.070312 C 38.890625 67.988281 39.035156 67.910156 39.050781 67.894531 C 39.0625 67.878906 39.125 67.847656 39.1875 67.828125 C 39.25 67.808594 39.300781 67.773438 39.300781 67.746094 C 39.300781 67.722656 39.324219 67.699219 39.351562 67.699219 C 39.460938 67.699219 40.238281 67.109375 40.648438 66.714844 L 41.074219 66.304688 L 40.949219 66.1875 C 40.882812 66.125 40.632812 65.914062 40.398438 65.722656 C 40.167969 65.53125 39.953125 65.351562 39.925781 65.324219 C 39.898438 65.292969 39.730469 65.148438 39.550781 64.996094 C 39.371094 64.847656 39.21875 64.707031 39.207031 64.6875 C 39.199219 64.667969 39.171875 64.648438 39.148438 64.648438 C 39.125 64.648438 39.039062 64.589844 38.960938 64.511719 C 38.878906 64.4375 38.71875 64.296875 38.601562 64.199219 C 38.480469 64.105469 38.347656 63.992188 38.304688 63.949219 C 38.261719 63.90625 38.101562 63.769531 37.949219 63.648438 C 37.796875 63.527344 37.644531 63.394531 37.605469 63.359375 C 37.566406 63.320312 37.382812 63.167969 37.195312 63.015625 L 36.851562 62.738281 L 36.539062 62.957031 C 36.363281 63.078125 36.179688 63.203125 36.125 63.238281 C 34.355469 64.335938 31.4375 63.894531 30.609375 62.40625 L 30.492188 62.199219 L 41.890625 62.199219 L 41.914062 62.0625 C 42.25 60.28125 42.214844 58.664062 41.820312 57.273438 C 41.640625 56.65625 41.589844 56.503906 41.394531 56.074219 C 41.34375 55.964844 41.28125 55.820312 41.253906 55.75 C 41.226562 55.679688 41.136719 55.511719 41.050781 55.375 C 40.96875 55.238281 40.886719 55.089844 40.867188 55.050781 C 40.851562 55.007812 40.75 54.859375 40.644531 54.714844 C 40.535156 54.570312 40.449219 54.433594 40.449219 54.40625 C 40.449219 54.378906 40.433594 54.351562 40.414062 54.339844 C 40.390625 54.332031 40.273438 54.203125 40.152344 54.050781 C 39.882812 53.710938 39.175781 53.011719 38.917969 52.820312 C 38.8125 52.742188 38.703125 52.65625 38.675781 52.625 C 38.601562 52.546875 37.996094 52.148438 37.949219 52.148438 C 37.925781 52.148438 37.902344 52.132812 37.890625 52.109375 C 37.871094 52.054688 36.777344 51.527344 36.523438 51.449219 C 36.414062 51.414062 36.246094 51.359375 36.148438 51.324219 C 35.195312 50.972656 33.109375 50.796875 31.824219 50.957031 M 22.199219 51.101562 C 21.324219 51.246094 20.820312 51.40625 20.285156 51.726562 C 20.125 51.824219 19.980469 51.898438 19.96875 51.898438 C 19.589844 51.898438 18.484375 53.289062 18.058594 54.300781 C 18.019531 54.390625 18.007812 54.015625 18.003906 52.914062 L 18 51.398438 L 11.550781 51.398438 L 11.550781 68.601562 L 18 68.601562 L 18 65.234375 C 18 60.722656 18.078125 60.269531 19.011719 59.277344 C 19.140625 59.136719 19.25 59.007812 19.25 58.988281 C 19.25 58.96875 19.28125 58.949219 19.320312 58.949219 C 19.359375 58.949219 19.398438 58.929688 19.40625 58.910156 C 19.433594 58.839844 20 58.496094 20.300781 58.363281 C 21.03125 58.039062 21.484375 57.949219 22.414062 57.949219 L 23.148438 57.949219 L 23.148438 51 L 22.960938 51.003906 C 22.859375 51.007812 22.515625 51.050781 22.199219 51.101562 M 33.976562 56.121094 C 34.742188 56.273438 35.484375 56.765625 35.703125 57.273438 C 35.730469 57.328125 35.769531 57.410156 35.792969 57.449219 C 35.847656 57.542969 35.933594 57.730469 35.996094 57.914062 L 36.046875 58.050781 L 30.394531 58.050781 L 30.429688 57.9375 C 30.835938 56.625 32.421875 55.808594 33.976562 56.121094 "/>
</g>
</svg>
