<svg width="100" height="100" viewBox="0 0 100 100" fill="none" xmlns="http://www.w3.org/2000/svg">
<path d="M10.6875 88.075C13.3042 87.1958 15.9229 86.3354 19.4938 84.9146C23.0458 83.5125 27.5521 81.55 30.8062 79.8854C34.0604 78.2208 36.0417 76.8562 38.3604 75.4917C40.8434 74.3687 43.0041 72.6392 44.6437 70.4625C45.7433 68.1059 46.1826 65.495 45.9146 62.9083C45.8233 61.6318 45.6099 60.367 45.2771 59.1312C44.9779 57.89 44.9779 56.5954 45.2771 55.3542C45.6521 54.1958 46.5875 53.3729 44.0271 49.0729C41.4667 44.7729 35.4229 36.975 35.2188 35.8521C34.9938 34.7312 40.6229 40.2833 44.025 44.0417C47.4292 47.7812 48.6062 49.7646 49.6917 50.325C49.893 50.4527 50.1271 50.5191 50.3654 50.5161C50.6038 50.5131 50.8362 50.4409 51.0342 50.3082C51.2323 50.1755 51.3875 49.9881 51.4809 49.7687C51.5743 49.5494 51.6019 49.3077 51.5604 49.0729C51.4479 48.0625 50.2687 46.9021 50.8687 45.8C52.0382 44.5113 53.6167 43.6658 55.3375 43.4062C55.849 43.2519 56.3995 43.2926 56.8827 43.5203C57.366 43.7481 57.7477 44.1468 57.9542 44.6396C58.4958 45.5937 59.0208 46.9583 58.4958 47.8C57.9542 48.6604 56.4021 48.9792 55.3562 49.7458C54.3083 50.4937 53.7667 51.6896 54.5708 51.6708C55.3937 51.6521 57.5625 50.4187 59.75 49.6896C61.6151 49.1707 63.5067 48.752 65.4167 48.4354C66.6687 48.1375 67.0062 47.7625 69.175 47.1833C71.6411 46.4975 74.1736 46.0778 76.7292 45.9312C78.0562 46.0437 76.6542 47.0521 74.8396 47.8C73.0271 48.5667 70.8021 49.0917 69.1729 49.6896C67.5687 50.3062 66.5396 51.0167 64.7812 51.5771C62.8311 52.0058 60.9317 52.6391 59.1146 53.4667C57.7312 54.3625 57.4687 55.7292 56.6104 57.2437C55.7521 58.7583 54.2917 60.4021 54.2167 61.6562C54.1229 62.9062 55.3937 63.75 55.975 64.7958C56.5562 65.8417 56.4604 67.0771 57.3208 68.0312C58.8556 69.217 60.5105 70.2386 62.2583 71.0792C64.5188 72.4625 67.1937 74.4812 69.0812 75.4354C70.9875 76.3896 72.0917 76.2396 74.1479 77.2125C76.6531 78.7005 79.2587 80.0127 81.9458 81.1396C84.7312 82.0167 87.2937 81.6812 88.1708 82.3542C89.0479 83.0271 88.2458 84.7083 86.7687 85.1583C85.1495 85.4103 83.4933 85.0788 82.0958 84.2229C81.0479 83.6062 81.1229 83.1187 79.1417 82.3542C77.1771 81.5875 73.1771 80.5583 69.1937 79.0833C65.1937 77.6042 61.2292 75.7167 57.8625 74.8542C55.1904 74.105 52.3638 74.105 49.6917 74.8542C47.9374 75.5442 46.248 76.3892 44.6437 77.3792C43.0542 78.1458 41.2583 78.6333 38.9979 79.8854C36.4189 81.6206 33.6759 83.0985 30.8083 84.2979C27.6292 85.3646 24.0208 85.4396 22.0021 86.1875C19.9833 86.9354 19.5708 88.3375 18.8604 88.6917C18.15 89.0458 17.1208 88.3562 15.7187 88.075C14.0486 87.8592 12.3576 87.8592 10.6875 88.075V88.075Z" stroke="#F79750" stroke-width="2.08333" stroke-linecap="round" stroke-linejoin="round"/>
<path d="M10.4271 51.6521C10.2753 46.4317 11.1581 41.2329 13.0245 36.3552C14.891 31.4776 17.7042 27.0174 21.3021 23.2319C24.9 19.4464 29.2115 16.4102 33.9881 14.2985C38.7647 12.1867 43.912 11.0411 49.1333 10.9275C54.3546 10.814 59.5468 11.7349 64.4107 13.637C69.2746 15.5392 73.7139 18.385 77.473 22.0106C81.232 25.6362 84.2365 29.9698 86.3131 34.7617C88.3898 39.5537 89.4977 44.7092 89.573 49.9312C89.5868 50.5049 89.5868 51.0785 89.573 51.6521" stroke="#F79750" stroke-width="2.08333" stroke-linecap="round" stroke-linejoin="round"/>
</svg>
