<svg width="23" height="30" viewBox="0 0 23 30" fill="none" xmlns="http://www.w3.org/2000/svg">
<path d="M20.625 0C21.1465 0 21.6446 0.216328 21.9961 0.59707C22.3535 0.97793 22.5352 1.48945 22.4942 2.00859L20.8067 25.6465C20.6309 28.1016 18.5918 30 16.1309 30H6.36916C3.90939 30 1.86857 28.1016 1.69338 25.6465L0.00476614 2.00859C-0.0135808 1.75173 0.0211664 1.49384 0.106843 1.251C0.192519 1.00815 0.327289 0.785554 0.502754 0.59707C0.678257 0.408688 0.890667 0.258457 1.12676 0.155736C1.36284 0.0530144 1.61755 1.87523e-06 1.87502 0L20.625 0ZM5.69475 9.87891C6.83205 10.4473 8.16799 10.4473 9.30471 9.87891C10.5293 9.26367 11.9707 9.26367 13.1953 9.87891C14.3321 10.4473 15.668 10.4473 16.8047 9.87891L18.2227 9.16992L18.6094 3.75H3.88889L4.27561 9.16992L5.69475 9.87891Z" fill="#F79750"/>
</svg>
